<mxfile host="app.diagrams.net" modified="2023-09-28T05:21:14.291Z" agent="Mozilla/5.0 (Windows NT 10.0; Win64; x64) AppleWebKit/537.36 (KHTML, like Gecko) Chrome/116.0.0.0 Safari/537.36" etag="fTpaZZHUFwfj-JrtQWZv" version="21.8.2" type="github">
  <diagram id="C5RBs43oDa-KdzZeNtuy" name="Page-1">
    <mxGraphModel dx="1515" dy="1010" grid="0" gridSize="10" guides="1" tooltips="1" connect="1" arrows="1" fold="1" page="0" pageScale="1" pageWidth="827" pageHeight="1169" background="none" math="0" shadow="1">
      <root>
        <mxCell id="WIyWlLk6GJQsqaUBKTNV-0" />
        <mxCell id="WIyWlLk6GJQsqaUBKTNV-1" parent="WIyWlLk6GJQsqaUBKTNV-0" />
        <mxCell id="PftI_As0DloSIWzg-in4-11" value="Pagamentos" style="swimlane;fontStyle=1;align=center;verticalAlign=top;childLayout=stackLayout;horizontal=1;startSize=26;horizontalStack=0;resizeParent=1;resizeParentMax=0;resizeLast=0;collapsible=1;marginBottom=0;whiteSpace=wrap;html=1;" vertex="1" parent="WIyWlLk6GJQsqaUBKTNV-1">
          <mxGeometry x="510" width="120" height="202" as="geometry" />
        </mxCell>
        <mxCell id="PftI_As0DloSIWzg-in4-12" value="+ id_pgto: int" style="text;strokeColor=none;fillColor=none;align=left;verticalAlign=top;spacingLeft=4;spacingRight=4;overflow=hidden;rotatable=0;points=[[0,0.5],[1,0.5]];portConstraint=eastwest;whiteSpace=wrap;html=1;" vertex="1" parent="PftI_As0DloSIWzg-in4-11">
          <mxGeometry y="26" width="120" height="18" as="geometry" />
        </mxCell>
        <mxCell id="PftI_As0DloSIWzg-in4-43" value="+ id_fornec: int" style="text;strokeColor=none;fillColor=none;align=left;verticalAlign=top;spacingLeft=4;spacingRight=4;overflow=hidden;rotatable=0;points=[[0,0.5],[1,0.5]];portConstraint=eastwest;whiteSpace=wrap;html=1;" vertex="1" parent="PftI_As0DloSIWzg-in4-11">
          <mxGeometry y="44" width="120" height="21" as="geometry" />
        </mxCell>
        <mxCell id="PftI_As0DloSIWzg-in4-139" value="+ valor: float" style="text;strokeColor=none;fillColor=none;align=left;verticalAlign=top;spacingLeft=4;spacingRight=4;overflow=hidden;rotatable=0;points=[[0,0.5],[1,0.5]];portConstraint=eastwest;whiteSpace=wrap;html=1;" vertex="1" parent="PftI_As0DloSIWzg-in4-11">
          <mxGeometry y="65" width="120" height="19" as="geometry" />
        </mxCell>
        <mxCell id="PftI_As0DloSIWzg-in4-44" value="+ data: date" style="text;strokeColor=none;fillColor=none;align=left;verticalAlign=top;spacingLeft=4;spacingRight=4;overflow=hidden;rotatable=0;points=[[0,0.5],[1,0.5]];portConstraint=eastwest;whiteSpace=wrap;html=1;" vertex="1" parent="PftI_As0DloSIWzg-in4-11">
          <mxGeometry y="84" width="120" height="21" as="geometry" />
        </mxCell>
        <mxCell id="PftI_As0DloSIWzg-in4-13" value="" style="line;strokeWidth=1;fillColor=none;align=left;verticalAlign=middle;spacingTop=-1;spacingLeft=3;spacingRight=3;rotatable=0;labelPosition=right;points=[];portConstraint=eastwest;strokeColor=inherit;" vertex="1" parent="PftI_As0DloSIWzg-in4-11">
          <mxGeometry y="105" width="120" height="6" as="geometry" />
        </mxCell>
        <mxCell id="PftI_As0DloSIWzg-in4-67" value="+ inserir(): void" style="text;strokeColor=none;fillColor=none;align=left;verticalAlign=top;spacingLeft=4;spacingRight=4;overflow=hidden;rotatable=0;points=[[0,0.5],[1,0.5]];portConstraint=eastwest;whiteSpace=wrap;html=1;" vertex="1" parent="PftI_As0DloSIWzg-in4-11">
          <mxGeometry y="111" width="120" height="23" as="geometry" />
        </mxCell>
        <mxCell id="PftI_As0DloSIWzg-in4-68" value="+ alterar(): void" style="text;strokeColor=none;fillColor=none;align=left;verticalAlign=top;spacingLeft=4;spacingRight=4;overflow=hidden;rotatable=0;points=[[0,0.5],[1,0.5]];portConstraint=eastwest;whiteSpace=wrap;html=1;" vertex="1" parent="PftI_As0DloSIWzg-in4-11">
          <mxGeometry y="134" width="120" height="21" as="geometry" />
        </mxCell>
        <mxCell id="PftI_As0DloSIWzg-in4-69" value="+ excluir(): void" style="text;strokeColor=none;fillColor=none;align=left;verticalAlign=top;spacingLeft=4;spacingRight=4;overflow=hidden;rotatable=0;points=[[0,0.5],[1,0.5]];portConstraint=eastwest;whiteSpace=wrap;html=1;" vertex="1" parent="PftI_As0DloSIWzg-in4-11">
          <mxGeometry y="155" width="120" height="23" as="geometry" />
        </mxCell>
        <mxCell id="PftI_As0DloSIWzg-in4-70" value="+ visualizar(): void" style="text;strokeColor=none;fillColor=none;align=left;verticalAlign=top;spacingLeft=4;spacingRight=4;overflow=hidden;rotatable=0;points=[[0,0.5],[1,0.5]];portConstraint=eastwest;whiteSpace=wrap;html=1;" vertex="1" parent="PftI_As0DloSIWzg-in4-11">
          <mxGeometry y="178" width="120" height="24" as="geometry" />
        </mxCell>
        <mxCell id="PftI_As0DloSIWzg-in4-15" value="Funcionario" style="swimlane;fontStyle=1;align=center;verticalAlign=top;childLayout=stackLayout;horizontal=1;startSize=26;horizontalStack=0;resizeParent=1;resizeParentMax=0;resizeLast=0;collapsible=1;marginBottom=0;whiteSpace=wrap;html=1;" vertex="1" parent="WIyWlLk6GJQsqaUBKTNV-1">
          <mxGeometry x="190" width="120" height="192" as="geometry">
            <mxRectangle x="30" y="192" width="110" height="30" as="alternateBounds" />
          </mxGeometry>
        </mxCell>
        <mxCell id="PftI_As0DloSIWzg-in4-16" value="+ id_funcionario: int" style="text;strokeColor=none;fillColor=none;align=left;verticalAlign=top;spacingLeft=4;spacingRight=4;overflow=hidden;rotatable=0;points=[[0,0.5],[1,0.5]];portConstraint=eastwest;whiteSpace=wrap;html=1;" vertex="1" parent="PftI_As0DloSIWzg-in4-15">
          <mxGeometry y="26" width="120" height="18" as="geometry" />
        </mxCell>
        <mxCell id="PftI_As0DloSIWzg-in4-81" value="+ nome: string" style="text;strokeColor=none;fillColor=none;align=left;verticalAlign=top;spacingLeft=4;spacingRight=4;overflow=hidden;rotatable=0;points=[[0,0.5],[1,0.5]];portConstraint=eastwest;whiteSpace=wrap;html=1;" vertex="1" parent="PftI_As0DloSIWzg-in4-15">
          <mxGeometry y="44" width="120" height="17" as="geometry" />
        </mxCell>
        <mxCell id="PftI_As0DloSIWzg-in4-82" value="+ login: string" style="text;strokeColor=none;fillColor=none;align=left;verticalAlign=top;spacingLeft=4;spacingRight=4;overflow=hidden;rotatable=0;points=[[0,0.5],[1,0.5]];portConstraint=eastwest;whiteSpace=wrap;html=1;" vertex="1" parent="PftI_As0DloSIWzg-in4-15">
          <mxGeometry y="61" width="120" height="18" as="geometry" />
        </mxCell>
        <mxCell id="PftI_As0DloSIWzg-in4-83" value="+ senha: string" style="text;strokeColor=none;fillColor=none;align=left;verticalAlign=top;spacingLeft=4;spacingRight=4;overflow=hidden;rotatable=0;points=[[0,0.5],[1,0.5]];portConstraint=eastwest;whiteSpace=wrap;html=1;" vertex="1" parent="PftI_As0DloSIWzg-in4-15">
          <mxGeometry y="79" width="120" height="18" as="geometry" />
        </mxCell>
        <mxCell id="PftI_As0DloSIWzg-in4-17" value="" style="line;strokeWidth=1;fillColor=none;align=left;verticalAlign=middle;spacingTop=-1;spacingLeft=3;spacingRight=3;rotatable=0;labelPosition=right;points=[];portConstraint=eastwest;strokeColor=inherit;" vertex="1" parent="PftI_As0DloSIWzg-in4-15">
          <mxGeometry y="97" width="120" height="8" as="geometry" />
        </mxCell>
        <mxCell id="PftI_As0DloSIWzg-in4-18" value="+ inserir(): void&lt;br&gt;" style="text;strokeColor=none;fillColor=none;align=left;verticalAlign=top;spacingLeft=4;spacingRight=4;overflow=hidden;rotatable=0;points=[[0,0.5],[1,0.5]];portConstraint=eastwest;whiteSpace=wrap;html=1;" vertex="1" parent="PftI_As0DloSIWzg-in4-15">
          <mxGeometry y="105" width="120" height="21" as="geometry" />
        </mxCell>
        <mxCell id="PftI_As0DloSIWzg-in4-85" value="+ alterar(): void" style="text;strokeColor=none;fillColor=none;align=left;verticalAlign=top;spacingLeft=4;spacingRight=4;overflow=hidden;rotatable=0;points=[[0,0.5],[1,0.5]];portConstraint=eastwest;whiteSpace=wrap;html=1;" vertex="1" parent="PftI_As0DloSIWzg-in4-15">
          <mxGeometry y="126" width="120" height="21" as="geometry" />
        </mxCell>
        <mxCell id="PftI_As0DloSIWzg-in4-86" value="+ excluir(): void" style="text;strokeColor=none;fillColor=none;align=left;verticalAlign=top;spacingLeft=4;spacingRight=4;overflow=hidden;rotatable=0;points=[[0,0.5],[1,0.5]];portConstraint=eastwest;whiteSpace=wrap;html=1;" vertex="1" parent="PftI_As0DloSIWzg-in4-15">
          <mxGeometry y="147" width="120" height="19" as="geometry" />
        </mxCell>
        <mxCell id="PftI_As0DloSIWzg-in4-84" value="+ visualizar(): void" style="text;strokeColor=none;fillColor=none;align=left;verticalAlign=top;spacingLeft=4;spacingRight=4;overflow=hidden;rotatable=0;points=[[0,0.5],[1,0.5]];portConstraint=eastwest;whiteSpace=wrap;html=1;" vertex="1" parent="PftI_As0DloSIWzg-in4-15">
          <mxGeometry y="166" width="120" height="26" as="geometry" />
        </mxCell>
        <mxCell id="PftI_As0DloSIWzg-in4-105" style="edgeStyle=orthogonalEdgeStyle;rounded=0;orthogonalLoop=1;jettySize=auto;html=1;entryX=0.25;entryY=0;entryDx=0;entryDy=0;exitX=0.457;exitY=-0.011;exitDx=0;exitDy=0;exitPerimeter=0;" edge="1" parent="WIyWlLk6GJQsqaUBKTNV-1" source="PftI_As0DloSIWzg-in4-20" target="PftI_As0DloSIWzg-in4-32">
          <mxGeometry relative="1" as="geometry">
            <mxPoint x="728" y="-50" as="sourcePoint" />
            <mxPoint x="40" y="-50" as="targetPoint" />
            <Array as="points">
              <mxPoint x="725" y="-60" />
              <mxPoint x="43" y="-60" />
            </Array>
          </mxGeometry>
        </mxCell>
        <mxCell id="PftI_As0DloSIWzg-in4-20" value="Cliente" style="swimlane;fontStyle=1;align=center;verticalAlign=top;childLayout=stackLayout;horizontal=1;startSize=26;horizontalStack=0;resizeParent=1;resizeParentMax=0;resizeLast=0;collapsible=1;marginBottom=0;whiteSpace=wrap;html=1;" vertex="1" parent="WIyWlLk6GJQsqaUBKTNV-1">
          <mxGeometry x="670" width="120" height="300" as="geometry" />
        </mxCell>
        <mxCell id="PftI_As0DloSIWzg-in4-21" value="+ id_cliente: int" style="text;strokeColor=none;fillColor=none;align=left;verticalAlign=top;spacingLeft=4;spacingRight=4;overflow=hidden;rotatable=0;points=[[0,0.5],[1,0.5]];portConstraint=eastwest;whiteSpace=wrap;html=1;" vertex="1" parent="PftI_As0DloSIWzg-in4-20">
          <mxGeometry y="26" width="120" height="24" as="geometry" />
        </mxCell>
        <mxCell id="PftI_As0DloSIWzg-in4-55" value="+ nome: string" style="text;strokeColor=none;fillColor=none;align=left;verticalAlign=top;spacingLeft=4;spacingRight=4;overflow=hidden;rotatable=0;points=[[0,0.5],[1,0.5]];portConstraint=eastwest;whiteSpace=wrap;html=1;" vertex="1" parent="PftI_As0DloSIWzg-in4-20">
          <mxGeometry y="50" width="120" height="22" as="geometry" />
        </mxCell>
        <mxCell id="PftI_As0DloSIWzg-in4-56" value="+ cpf: string" style="text;strokeColor=none;fillColor=none;align=left;verticalAlign=top;spacingLeft=4;spacingRight=4;overflow=hidden;rotatable=0;points=[[0,0.5],[1,0.5]];portConstraint=eastwest;whiteSpace=wrap;html=1;" vertex="1" parent="PftI_As0DloSIWzg-in4-20">
          <mxGeometry y="72" width="120" height="22" as="geometry" />
        </mxCell>
        <mxCell id="PftI_As0DloSIWzg-in4-57" value="+ email: string" style="text;strokeColor=none;fillColor=none;align=left;verticalAlign=top;spacingLeft=4;spacingRight=4;overflow=hidden;rotatable=0;points=[[0,0.5],[1,0.5]];portConstraint=eastwest;whiteSpace=wrap;html=1;" vertex="1" parent="PftI_As0DloSIWzg-in4-20">
          <mxGeometry y="94" width="120" height="24" as="geometry" />
        </mxCell>
        <mxCell id="PftI_As0DloSIWzg-in4-58" value="+ bairro: string" style="text;strokeColor=none;fillColor=none;align=left;verticalAlign=top;spacingLeft=4;spacingRight=4;overflow=hidden;rotatable=0;points=[[0,0.5],[1,0.5]];portConstraint=eastwest;whiteSpace=wrap;html=1;" vertex="1" parent="PftI_As0DloSIWzg-in4-20">
          <mxGeometry y="118" width="120" height="23" as="geometry" />
        </mxCell>
        <mxCell id="PftI_As0DloSIWzg-in4-63" value="+ CEP: string" style="text;strokeColor=none;fillColor=none;align=left;verticalAlign=top;spacingLeft=4;spacingRight=4;overflow=hidden;rotatable=0;points=[[0,0.5],[1,0.5]];portConstraint=eastwest;whiteSpace=wrap;html=1;" vertex="1" parent="PftI_As0DloSIWzg-in4-20">
          <mxGeometry y="141" width="120" height="23" as="geometry" />
        </mxCell>
        <mxCell id="PftI_As0DloSIWzg-in4-65" value="+ rua: string" style="text;strokeColor=none;fillColor=none;align=left;verticalAlign=top;spacingLeft=4;spacingRight=4;overflow=hidden;rotatable=0;points=[[0,0.5],[1,0.5]];portConstraint=eastwest;whiteSpace=wrap;html=1;" vertex="1" parent="PftI_As0DloSIWzg-in4-20">
          <mxGeometry y="164" width="120" height="19" as="geometry" />
        </mxCell>
        <mxCell id="PftI_As0DloSIWzg-in4-66" value="+ numero: string" style="text;strokeColor=none;fillColor=none;align=left;verticalAlign=top;spacingLeft=4;spacingRight=4;overflow=hidden;rotatable=0;points=[[0,0.5],[1,0.5]];portConstraint=eastwest;whiteSpace=wrap;html=1;" vertex="1" parent="PftI_As0DloSIWzg-in4-20">
          <mxGeometry y="183" width="120" height="22" as="geometry" />
        </mxCell>
        <mxCell id="PftI_As0DloSIWzg-in4-22" value="" style="line;strokeWidth=1;fillColor=none;align=left;verticalAlign=middle;spacingTop=-1;spacingLeft=3;spacingRight=3;rotatable=0;labelPosition=right;points=[];portConstraint=eastwest;strokeColor=inherit;" vertex="1" parent="PftI_As0DloSIWzg-in4-20">
          <mxGeometry y="205" width="120" height="6" as="geometry" />
        </mxCell>
        <mxCell id="PftI_As0DloSIWzg-in4-59" value="+ inserir(): void" style="text;strokeColor=none;fillColor=none;align=left;verticalAlign=top;spacingLeft=4;spacingRight=4;overflow=hidden;rotatable=0;points=[[0,0.5],[1,0.5]];portConstraint=eastwest;whiteSpace=wrap;html=1;" vertex="1" parent="PftI_As0DloSIWzg-in4-20">
          <mxGeometry y="211" width="120" height="20" as="geometry" />
        </mxCell>
        <mxCell id="PftI_As0DloSIWzg-in4-61" value="+ alterar(): void" style="text;strokeColor=none;fillColor=none;align=left;verticalAlign=top;spacingLeft=4;spacingRight=4;overflow=hidden;rotatable=0;points=[[0,0.5],[1,0.5]];portConstraint=eastwest;whiteSpace=wrap;html=1;" vertex="1" parent="PftI_As0DloSIWzg-in4-20">
          <mxGeometry y="231" width="120" height="24" as="geometry" />
        </mxCell>
        <mxCell id="PftI_As0DloSIWzg-in4-62" value="+ excluir(): void" style="text;strokeColor=none;fillColor=none;align=left;verticalAlign=top;spacingLeft=4;spacingRight=4;overflow=hidden;rotatable=0;points=[[0,0.5],[1,0.5]];portConstraint=eastwest;whiteSpace=wrap;html=1;" vertex="1" parent="PftI_As0DloSIWzg-in4-20">
          <mxGeometry y="255" width="120" height="21" as="geometry" />
        </mxCell>
        <mxCell id="PftI_As0DloSIWzg-in4-23" value="+ visualizar(): void" style="text;strokeColor=none;fillColor=none;align=left;verticalAlign=top;spacingLeft=4;spacingRight=4;overflow=hidden;rotatable=0;points=[[0,0.5],[1,0.5]];portConstraint=eastwest;whiteSpace=wrap;html=1;" vertex="1" parent="PftI_As0DloSIWzg-in4-20">
          <mxGeometry y="276" width="120" height="24" as="geometry" />
        </mxCell>
        <mxCell id="PftI_As0DloSIWzg-in4-103" style="edgeStyle=orthogonalEdgeStyle;rounded=0;orthogonalLoop=1;jettySize=auto;html=1;exitX=0.5;exitY=0;exitDx=0;exitDy=0;entryX=0.5;entryY=0;entryDx=0;entryDy=0;" edge="1" parent="WIyWlLk6GJQsqaUBKTNV-1" source="PftI_As0DloSIWzg-in4-24" target="PftI_As0DloSIWzg-in4-32">
          <mxGeometry relative="1" as="geometry" />
        </mxCell>
        <mxCell id="PftI_As0DloSIWzg-in4-24" value="Produtos" style="swimlane;fontStyle=1;align=center;verticalAlign=top;childLayout=stackLayout;horizontal=1;startSize=26;horizontalStack=0;resizeParent=1;resizeParentMax=0;resizeLast=0;collapsible=1;marginBottom=0;whiteSpace=wrap;html=1;" vertex="1" parent="WIyWlLk6GJQsqaUBKTNV-1">
          <mxGeometry x="350" width="120" height="223" as="geometry" />
        </mxCell>
        <mxCell id="PftI_As0DloSIWzg-in4-94" value="+ id_produto: int" style="text;strokeColor=none;fillColor=none;align=left;verticalAlign=top;spacingLeft=4;spacingRight=4;overflow=hidden;rotatable=0;points=[[0,0.5],[1,0.5]];portConstraint=eastwest;whiteSpace=wrap;html=1;" vertex="1" parent="PftI_As0DloSIWzg-in4-24">
          <mxGeometry y="26" width="120" height="18" as="geometry" />
        </mxCell>
        <mxCell id="PftI_As0DloSIWzg-in4-95" value="+ nome: string" style="text;strokeColor=none;fillColor=none;align=left;verticalAlign=top;spacingLeft=4;spacingRight=4;overflow=hidden;rotatable=0;points=[[0,0.5],[1,0.5]];portConstraint=eastwest;whiteSpace=wrap;html=1;" vertex="1" parent="PftI_As0DloSIWzg-in4-24">
          <mxGeometry y="44" width="120" height="17" as="geometry" />
        </mxCell>
        <mxCell id="PftI_As0DloSIWzg-in4-97" value="+ preco: int" style="text;strokeColor=none;fillColor=none;align=left;verticalAlign=top;spacingLeft=4;spacingRight=4;overflow=hidden;rotatable=0;points=[[0,0.5],[1,0.5]];portConstraint=eastwest;whiteSpace=wrap;html=1;" vertex="1" parent="PftI_As0DloSIWzg-in4-24">
          <mxGeometry y="61" width="120" height="20" as="geometry" />
        </mxCell>
        <mxCell id="PftI_As0DloSIWzg-in4-96" value="+ qtde: int" style="text;strokeColor=none;fillColor=none;align=left;verticalAlign=top;spacingLeft=4;spacingRight=4;overflow=hidden;rotatable=0;points=[[0,0.5],[1,0.5]];portConstraint=eastwest;whiteSpace=wrap;html=1;" vertex="1" parent="PftI_As0DloSIWzg-in4-24">
          <mxGeometry y="81" width="120" height="20" as="geometry" />
        </mxCell>
        <mxCell id="PftI_As0DloSIWzg-in4-93" value="+ descricao: string" style="text;strokeColor=none;fillColor=none;align=left;verticalAlign=top;spacingLeft=4;spacingRight=4;overflow=hidden;rotatable=0;points=[[0,0.5],[1,0.5]];portConstraint=eastwest;whiteSpace=wrap;html=1;" vertex="1" parent="PftI_As0DloSIWzg-in4-24">
          <mxGeometry y="101" width="120" height="24" as="geometry" />
        </mxCell>
        <mxCell id="PftI_As0DloSIWzg-in4-26" value="" style="line;strokeWidth=1;fillColor=none;align=left;verticalAlign=middle;spacingTop=-1;spacingLeft=3;spacingRight=3;rotatable=0;labelPosition=right;points=[];portConstraint=eastwest;strokeColor=inherit;" vertex="1" parent="PftI_As0DloSIWzg-in4-24">
          <mxGeometry y="125" width="120" height="8" as="geometry" />
        </mxCell>
        <mxCell id="PftI_As0DloSIWzg-in4-27" value="+ inserir(): void" style="text;strokeColor=none;fillColor=none;align=left;verticalAlign=top;spacingLeft=4;spacingRight=4;overflow=hidden;rotatable=0;points=[[0,0.5],[1,0.5]];portConstraint=eastwest;whiteSpace=wrap;html=1;" vertex="1" parent="PftI_As0DloSIWzg-in4-24">
          <mxGeometry y="133" width="120" height="20" as="geometry" />
        </mxCell>
        <mxCell id="PftI_As0DloSIWzg-in4-71" value="+ alterar(): void" style="text;strokeColor=none;fillColor=none;align=left;verticalAlign=top;spacingLeft=4;spacingRight=4;overflow=hidden;rotatable=0;points=[[0,0.5],[1,0.5]];portConstraint=eastwest;whiteSpace=wrap;html=1;" vertex="1" parent="PftI_As0DloSIWzg-in4-24">
          <mxGeometry y="153" width="120" height="20" as="geometry" />
        </mxCell>
        <mxCell id="PftI_As0DloSIWzg-in4-72" value="+ excluir(): void" style="text;strokeColor=none;fillColor=none;align=left;verticalAlign=top;spacingLeft=4;spacingRight=4;overflow=hidden;rotatable=0;points=[[0,0.5],[1,0.5]];portConstraint=eastwest;whiteSpace=wrap;html=1;" vertex="1" parent="PftI_As0DloSIWzg-in4-24">
          <mxGeometry y="173" width="120" height="20" as="geometry" />
        </mxCell>
        <mxCell id="PftI_As0DloSIWzg-in4-73" value="+ visualizar(): void" style="text;strokeColor=none;fillColor=none;align=left;verticalAlign=top;spacingLeft=4;spacingRight=4;overflow=hidden;rotatable=0;points=[[0,0.5],[1,0.5]];portConstraint=eastwest;whiteSpace=wrap;html=1;" vertex="1" parent="PftI_As0DloSIWzg-in4-24">
          <mxGeometry y="193" width="120" height="30" as="geometry" />
        </mxCell>
        <mxCell id="PftI_As0DloSIWzg-in4-32" value="Vendas" style="swimlane;fontStyle=1;align=center;verticalAlign=top;childLayout=stackLayout;horizontal=1;startSize=26;horizontalStack=0;resizeParent=1;resizeParentMax=0;resizeLast=0;collapsible=1;marginBottom=0;whiteSpace=wrap;html=1;" vertex="1" parent="WIyWlLk6GJQsqaUBKTNV-1">
          <mxGeometry x="10" width="130" height="311" as="geometry" />
        </mxCell>
        <mxCell id="PftI_As0DloSIWzg-in4-33" value="+ id_venda: int" style="text;strokeColor=none;fillColor=none;align=left;verticalAlign=top;spacingLeft=4;spacingRight=4;overflow=hidden;rotatable=0;points=[[0,0.5],[1,0.5]];portConstraint=eastwest;whiteSpace=wrap;html=1;" vertex="1" parent="PftI_As0DloSIWzg-in4-32">
          <mxGeometry y="26" width="130" height="21" as="geometry" />
        </mxCell>
        <mxCell id="PftI_As0DloSIWzg-in4-89" value="+ id_produto: int" style="text;strokeColor=none;fillColor=none;align=left;verticalAlign=top;spacingLeft=4;spacingRight=4;overflow=hidden;rotatable=0;points=[[0,0.5],[1,0.5]];portConstraint=eastwest;whiteSpace=wrap;html=1;" vertex="1" parent="PftI_As0DloSIWzg-in4-32">
          <mxGeometry y="47" width="130" height="22" as="geometry" />
        </mxCell>
        <mxCell id="PftI_As0DloSIWzg-in4-48" value="+ id_cliente: int" style="text;strokeColor=none;fillColor=none;align=left;verticalAlign=top;spacingLeft=4;spacingRight=4;overflow=hidden;rotatable=0;points=[[0,0.5],[1,0.5]];portConstraint=eastwest;whiteSpace=wrap;html=1;" vertex="1" parent="PftI_As0DloSIWzg-in4-32">
          <mxGeometry y="69" width="130" height="22" as="geometry" />
        </mxCell>
        <mxCell id="PftI_As0DloSIWzg-in4-50" value="+ id_funcionario: int" style="text;strokeColor=none;fillColor=none;align=left;verticalAlign=top;spacingLeft=4;spacingRight=4;overflow=hidden;rotatable=0;points=[[0,0.5],[1,0.5]];portConstraint=eastwest;whiteSpace=wrap;html=1;" vertex="1" parent="PftI_As0DloSIWzg-in4-32">
          <mxGeometry y="91" width="130" height="21" as="geometry" />
        </mxCell>
        <mxCell id="PftI_As0DloSIWzg-in4-49" value="+ tipo_venda_id: int" style="text;strokeColor=none;fillColor=none;align=left;verticalAlign=top;spacingLeft=4;spacingRight=4;overflow=hidden;rotatable=0;points=[[0,0.5],[1,0.5]];portConstraint=eastwest;whiteSpace=wrap;html=1;" vertex="1" parent="PftI_As0DloSIWzg-in4-32">
          <mxGeometry y="112" width="130" height="19" as="geometry" />
        </mxCell>
        <mxCell id="PftI_As0DloSIWzg-in4-77" value="+ valor: float" style="text;strokeColor=none;fillColor=none;align=left;verticalAlign=top;spacingLeft=4;spacingRight=4;overflow=hidden;rotatable=0;points=[[0,0.5],[1,0.5]];portConstraint=eastwest;whiteSpace=wrap;html=1;" vertex="1" parent="PftI_As0DloSIWzg-in4-32">
          <mxGeometry y="131" width="130" height="20" as="geometry" />
        </mxCell>
        <mxCell id="PftI_As0DloSIWzg-in4-90" value="+ qtde: int" style="text;strokeColor=none;fillColor=none;align=left;verticalAlign=top;spacingLeft=4;spacingRight=4;overflow=hidden;rotatable=0;points=[[0,0.5],[1,0.5]];portConstraint=eastwest;whiteSpace=wrap;html=1;" vertex="1" parent="PftI_As0DloSIWzg-in4-32">
          <mxGeometry y="151" width="130" height="20" as="geometry" />
        </mxCell>
        <mxCell id="PftI_As0DloSIWzg-in4-91" value="+ data: date" style="text;strokeColor=none;fillColor=none;align=left;verticalAlign=top;spacingLeft=4;spacingRight=4;overflow=hidden;rotatable=0;points=[[0,0.5],[1,0.5]];portConstraint=eastwest;whiteSpace=wrap;html=1;" vertex="1" parent="PftI_As0DloSIWzg-in4-32">
          <mxGeometry y="171" width="130" height="22" as="geometry" />
        </mxCell>
        <mxCell id="PftI_As0DloSIWzg-in4-151" value="+ id_tipo_pgto: int" style="text;strokeColor=none;fillColor=none;align=left;verticalAlign=top;spacingLeft=4;spacingRight=4;overflow=hidden;rotatable=0;points=[[0,0.5],[1,0.5]];portConstraint=eastwest;whiteSpace=wrap;html=1;" vertex="1" parent="PftI_As0DloSIWzg-in4-32">
          <mxGeometry y="193" width="130" height="22" as="geometry" />
        </mxCell>
        <mxCell id="PftI_As0DloSIWzg-in4-34" value="" style="line;strokeWidth=1;fillColor=none;align=left;verticalAlign=middle;spacingTop=-1;spacingLeft=3;spacingRight=3;rotatable=0;labelPosition=right;points=[];portConstraint=eastwest;strokeColor=inherit;" vertex="1" parent="PftI_As0DloSIWzg-in4-32">
          <mxGeometry y="215" width="130" height="10" as="geometry" />
        </mxCell>
        <mxCell id="PftI_As0DloSIWzg-in4-35" value="+ inserir(): void" style="text;strokeColor=none;fillColor=none;align=left;verticalAlign=top;spacingLeft=4;spacingRight=4;overflow=hidden;rotatable=0;points=[[0,0.5],[1,0.5]];portConstraint=eastwest;whiteSpace=wrap;html=1;" vertex="1" parent="PftI_As0DloSIWzg-in4-32">
          <mxGeometry y="225" width="130" height="18" as="geometry" />
        </mxCell>
        <mxCell id="PftI_As0DloSIWzg-in4-74" value="+ alterar(): void" style="text;strokeColor=none;fillColor=none;align=left;verticalAlign=top;spacingLeft=4;spacingRight=4;overflow=hidden;rotatable=0;points=[[0,0.5],[1,0.5]];portConstraint=eastwest;whiteSpace=wrap;html=1;" vertex="1" parent="PftI_As0DloSIWzg-in4-32">
          <mxGeometry y="243" width="130" height="22" as="geometry" />
        </mxCell>
        <mxCell id="PftI_As0DloSIWzg-in4-75" value="+ excluir(): void" style="text;strokeColor=none;fillColor=none;align=left;verticalAlign=top;spacingLeft=4;spacingRight=4;overflow=hidden;rotatable=0;points=[[0,0.5],[1,0.5]];portConstraint=eastwest;whiteSpace=wrap;html=1;" vertex="1" parent="PftI_As0DloSIWzg-in4-32">
          <mxGeometry y="265" width="130" height="21" as="geometry" />
        </mxCell>
        <mxCell id="PftI_As0DloSIWzg-in4-76" value="+ visualizar(): void" style="text;strokeColor=none;fillColor=none;align=left;verticalAlign=top;spacingLeft=4;spacingRight=4;overflow=hidden;rotatable=0;points=[[0,0.5],[1,0.5]];portConstraint=eastwest;whiteSpace=wrap;html=1;" vertex="1" parent="PftI_As0DloSIWzg-in4-32">
          <mxGeometry y="286" width="130" height="25" as="geometry" />
        </mxCell>
        <mxCell id="PftI_As0DloSIWzg-in4-51" value="Tipo_venda" style="swimlane;fontStyle=1;align=center;verticalAlign=top;childLayout=stackLayout;horizontal=1;startSize=26;horizontalStack=0;resizeParent=1;resizeParentMax=0;resizeLast=0;collapsible=1;marginBottom=0;whiteSpace=wrap;html=1;" vertex="1" parent="WIyWlLk6GJQsqaUBKTNV-1">
          <mxGeometry x="190" y="267" width="120" height="159" as="geometry" />
        </mxCell>
        <mxCell id="PftI_As0DloSIWzg-in4-78" value="+ id_tipo_venda: int" style="text;strokeColor=none;fillColor=none;align=left;verticalAlign=top;spacingLeft=4;spacingRight=4;overflow=hidden;rotatable=0;points=[[0,0.5],[1,0.5]];portConstraint=eastwest;whiteSpace=wrap;html=1;" vertex="1" parent="PftI_As0DloSIWzg-in4-51">
          <mxGeometry y="26" width="120" height="22" as="geometry" />
        </mxCell>
        <mxCell id="PftI_As0DloSIWzg-in4-52" value="+ descricao: string" style="text;strokeColor=none;fillColor=none;align=left;verticalAlign=top;spacingLeft=4;spacingRight=4;overflow=hidden;rotatable=0;points=[[0,0.5],[1,0.5]];portConstraint=eastwest;whiteSpace=wrap;html=1;" vertex="1" parent="PftI_As0DloSIWzg-in4-51">
          <mxGeometry y="48" width="120" height="22" as="geometry" />
        </mxCell>
        <mxCell id="PftI_As0DloSIWzg-in4-53" value="" style="line;strokeWidth=1;fillColor=none;align=left;verticalAlign=middle;spacingTop=-1;spacingLeft=3;spacingRight=3;rotatable=0;labelPosition=right;points=[];portConstraint=eastwest;strokeColor=inherit;" vertex="1" parent="PftI_As0DloSIWzg-in4-51">
          <mxGeometry y="70" width="120" height="8" as="geometry" />
        </mxCell>
        <mxCell id="PftI_As0DloSIWzg-in4-79" value="+ inserir(): void" style="text;strokeColor=none;fillColor=none;align=left;verticalAlign=top;spacingLeft=4;spacingRight=4;overflow=hidden;rotatable=0;points=[[0,0.5],[1,0.5]];portConstraint=eastwest;whiteSpace=wrap;html=1;" vertex="1" parent="PftI_As0DloSIWzg-in4-51">
          <mxGeometry y="78" width="120" height="19" as="geometry" />
        </mxCell>
        <mxCell id="PftI_As0DloSIWzg-in4-54" value="+ alterar(): void" style="text;strokeColor=none;fillColor=none;align=left;verticalAlign=top;spacingLeft=4;spacingRight=4;overflow=hidden;rotatable=0;points=[[0,0.5],[1,0.5]];portConstraint=eastwest;whiteSpace=wrap;html=1;" vertex="1" parent="PftI_As0DloSIWzg-in4-51">
          <mxGeometry y="97" width="120" height="20" as="geometry" />
        </mxCell>
        <mxCell id="PftI_As0DloSIWzg-in4-87" value="+ excluir(): void" style="text;strokeColor=none;fillColor=none;align=left;verticalAlign=top;spacingLeft=4;spacingRight=4;overflow=hidden;rotatable=0;points=[[0,0.5],[1,0.5]];portConstraint=eastwest;whiteSpace=wrap;html=1;" vertex="1" parent="PftI_As0DloSIWzg-in4-51">
          <mxGeometry y="117" width="120" height="20" as="geometry" />
        </mxCell>
        <mxCell id="PftI_As0DloSIWzg-in4-88" value="+ visualizar(): void" style="text;strokeColor=none;fillColor=none;align=left;verticalAlign=top;spacingLeft=4;spacingRight=4;overflow=hidden;rotatable=0;points=[[0,0.5],[1,0.5]];portConstraint=eastwest;whiteSpace=wrap;html=1;" vertex="1" parent="PftI_As0DloSIWzg-in4-51">
          <mxGeometry y="137" width="120" height="22" as="geometry" />
        </mxCell>
        <mxCell id="PftI_As0DloSIWzg-in4-101" style="edgeStyle=orthogonalEdgeStyle;rounded=0;orthogonalLoop=1;jettySize=auto;html=1;exitX=0;exitY=0.5;exitDx=0;exitDy=0;entryX=0.553;entryY=1.036;entryDx=0;entryDy=0;entryPerimeter=0;" edge="1" parent="WIyWlLk6GJQsqaUBKTNV-1" source="PftI_As0DloSIWzg-in4-87" target="PftI_As0DloSIWzg-in4-76">
          <mxGeometry relative="1" as="geometry" />
        </mxCell>
        <mxCell id="PftI_As0DloSIWzg-in4-102" style="edgeStyle=orthogonalEdgeStyle;rounded=0;orthogonalLoop=1;jettySize=auto;html=1;exitX=0;exitY=0.5;exitDx=0;exitDy=0;entryX=1;entryY=0.5;entryDx=0;entryDy=0;" edge="1" parent="WIyWlLk6GJQsqaUBKTNV-1" source="PftI_As0DloSIWzg-in4-83" target="PftI_As0DloSIWzg-in4-50">
          <mxGeometry relative="1" as="geometry" />
        </mxCell>
        <mxCell id="PftI_As0DloSIWzg-in4-107" value="Fornecedor" style="swimlane;fontStyle=1;align=center;verticalAlign=top;childLayout=stackLayout;horizontal=1;startSize=26;horizontalStack=0;resizeParent=1;resizeParentMax=0;resizeLast=0;collapsible=1;marginBottom=0;whiteSpace=wrap;html=1;" vertex="1" parent="WIyWlLk6GJQsqaUBKTNV-1">
          <mxGeometry x="510" y="264" width="120" height="203" as="geometry" />
        </mxCell>
        <mxCell id="PftI_As0DloSIWzg-in4-108" value="+ id_fornec: int" style="text;strokeColor=none;fillColor=none;align=left;verticalAlign=top;spacingLeft=4;spacingRight=4;overflow=hidden;rotatable=0;points=[[0,0.5],[1,0.5]];portConstraint=eastwest;whiteSpace=wrap;html=1;" vertex="1" parent="PftI_As0DloSIWzg-in4-107">
          <mxGeometry y="26" width="120" height="22" as="geometry" />
        </mxCell>
        <mxCell id="PftI_As0DloSIWzg-in4-113" value="+ nome: string" style="text;strokeColor=none;fillColor=none;align=left;verticalAlign=top;spacingLeft=4;spacingRight=4;overflow=hidden;rotatable=0;points=[[0,0.5],[1,0.5]];portConstraint=eastwest;whiteSpace=wrap;html=1;" vertex="1" parent="PftI_As0DloSIWzg-in4-107">
          <mxGeometry y="48" width="120" height="21" as="geometry" />
        </mxCell>
        <mxCell id="PftI_As0DloSIWzg-in4-112" value="+ cnpj: string" style="text;strokeColor=none;fillColor=none;align=left;verticalAlign=top;spacingLeft=4;spacingRight=4;overflow=hidden;rotatable=0;points=[[0,0.5],[1,0.5]];portConstraint=eastwest;whiteSpace=wrap;html=1;" vertex="1" parent="PftI_As0DloSIWzg-in4-107">
          <mxGeometry y="69" width="120" height="21" as="geometry" />
        </mxCell>
        <mxCell id="PftI_As0DloSIWzg-in4-111" value="+ telefone: string" style="text;strokeColor=none;fillColor=none;align=left;verticalAlign=top;spacingLeft=4;spacingRight=4;overflow=hidden;rotatable=0;points=[[0,0.5],[1,0.5]];portConstraint=eastwest;whiteSpace=wrap;html=1;" vertex="1" parent="PftI_As0DloSIWzg-in4-107">
          <mxGeometry y="90" width="120" height="22" as="geometry" />
        </mxCell>
        <mxCell id="PftI_As0DloSIWzg-in4-109" value="" style="line;strokeWidth=1;fillColor=none;align=left;verticalAlign=middle;spacingTop=-1;spacingLeft=3;spacingRight=3;rotatable=0;labelPosition=right;points=[];portConstraint=eastwest;strokeColor=inherit;" vertex="1" parent="PftI_As0DloSIWzg-in4-107">
          <mxGeometry y="112" width="120" height="8" as="geometry" />
        </mxCell>
        <mxCell id="PftI_As0DloSIWzg-in4-116" value="+ inserir(): void" style="text;strokeColor=none;fillColor=none;align=left;verticalAlign=top;spacingLeft=4;spacingRight=4;overflow=hidden;rotatable=0;points=[[0,0.5],[1,0.5]];portConstraint=eastwest;whiteSpace=wrap;html=1;" vertex="1" parent="PftI_As0DloSIWzg-in4-107">
          <mxGeometry y="120" width="120" height="19" as="geometry" />
        </mxCell>
        <mxCell id="PftI_As0DloSIWzg-in4-115" value="+ alterar(): void" style="text;strokeColor=none;fillColor=none;align=left;verticalAlign=top;spacingLeft=4;spacingRight=4;overflow=hidden;rotatable=0;points=[[0,0.5],[1,0.5]];portConstraint=eastwest;whiteSpace=wrap;html=1;" vertex="1" parent="PftI_As0DloSIWzg-in4-107">
          <mxGeometry y="139" width="120" height="20" as="geometry" />
        </mxCell>
        <mxCell id="PftI_As0DloSIWzg-in4-110" value="+ excluir(): void" style="text;strokeColor=none;fillColor=none;align=left;verticalAlign=top;spacingLeft=4;spacingRight=4;overflow=hidden;rotatable=0;points=[[0,0.5],[1,0.5]];portConstraint=eastwest;whiteSpace=wrap;html=1;" vertex="1" parent="PftI_As0DloSIWzg-in4-107">
          <mxGeometry y="159" width="120" height="20" as="geometry" />
        </mxCell>
        <mxCell id="PftI_As0DloSIWzg-in4-114" value="+ visualizar(): void" style="text;strokeColor=none;fillColor=none;align=left;verticalAlign=top;spacingLeft=4;spacingRight=4;overflow=hidden;rotatable=0;points=[[0,0.5],[1,0.5]];portConstraint=eastwest;whiteSpace=wrap;html=1;" vertex="1" parent="PftI_As0DloSIWzg-in4-107">
          <mxGeometry y="179" width="120" height="24" as="geometry" />
        </mxCell>
        <mxCell id="PftI_As0DloSIWzg-in4-118" style="edgeStyle=orthogonalEdgeStyle;rounded=0;orthogonalLoop=1;jettySize=auto;html=1;exitX=0.5;exitY=0;exitDx=0;exitDy=0;entryX=0.5;entryY=1.012;entryDx=0;entryDy=0;entryPerimeter=0;" edge="1" parent="WIyWlLk6GJQsqaUBKTNV-1" source="PftI_As0DloSIWzg-in4-107" target="PftI_As0DloSIWzg-in4-70">
          <mxGeometry relative="1" as="geometry" />
        </mxCell>
        <mxCell id="PftI_As0DloSIWzg-in4-120" value="Recebimentos" style="swimlane;fontStyle=1;align=center;verticalAlign=top;childLayout=stackLayout;horizontal=1;startSize=26;horizontalStack=0;resizeParent=1;resizeParentMax=0;resizeLast=0;collapsible=1;marginBottom=0;whiteSpace=wrap;html=1;" vertex="1" parent="WIyWlLk6GJQsqaUBKTNV-1">
          <mxGeometry x="350" y="264" width="120" height="202" as="geometry" />
        </mxCell>
        <mxCell id="PftI_As0DloSIWzg-in4-124" value="+ id_receb: int" style="text;strokeColor=none;fillColor=none;align=left;verticalAlign=top;spacingLeft=4;spacingRight=4;overflow=hidden;rotatable=0;points=[[0,0.5],[1,0.5]];portConstraint=eastwest;whiteSpace=wrap;html=1;" vertex="1" parent="PftI_As0DloSIWzg-in4-120">
          <mxGeometry y="26" width="120" height="20" as="geometry" />
        </mxCell>
        <mxCell id="PftI_As0DloSIWzg-in4-125" value="+ id_venda: int" style="text;strokeColor=none;fillColor=none;align=left;verticalAlign=top;spacingLeft=4;spacingRight=4;overflow=hidden;rotatable=0;points=[[0,0.5],[1,0.5]];portConstraint=eastwest;whiteSpace=wrap;html=1;" vertex="1" parent="PftI_As0DloSIWzg-in4-120">
          <mxGeometry y="46" width="120" height="20" as="geometry" />
        </mxCell>
        <mxCell id="PftI_As0DloSIWzg-in4-126" value="+ valor: float" style="text;strokeColor=none;fillColor=none;align=left;verticalAlign=top;spacingLeft=4;spacingRight=4;overflow=hidden;rotatable=0;points=[[0,0.5],[1,0.5]];portConstraint=eastwest;whiteSpace=wrap;html=1;" vertex="1" parent="PftI_As0DloSIWzg-in4-120">
          <mxGeometry y="66" width="120" height="20" as="geometry" />
        </mxCell>
        <mxCell id="PftI_As0DloSIWzg-in4-121" value="+ data: date" style="text;strokeColor=none;fillColor=none;align=left;verticalAlign=top;spacingLeft=4;spacingRight=4;overflow=hidden;rotatable=0;points=[[0,0.5],[1,0.5]];portConstraint=eastwest;whiteSpace=wrap;html=1;" vertex="1" parent="PftI_As0DloSIWzg-in4-120">
          <mxGeometry y="86" width="120" height="20" as="geometry" />
        </mxCell>
        <mxCell id="PftI_As0DloSIWzg-in4-122" value="" style="line;strokeWidth=1;fillColor=none;align=left;verticalAlign=middle;spacingTop=-1;spacingLeft=3;spacingRight=3;rotatable=0;labelPosition=right;points=[];portConstraint=eastwest;strokeColor=inherit;" vertex="1" parent="PftI_As0DloSIWzg-in4-120">
          <mxGeometry y="106" width="120" height="8" as="geometry" />
        </mxCell>
        <mxCell id="PftI_As0DloSIWzg-in4-129" value="+ inserir(): void" style="text;strokeColor=none;fillColor=none;align=left;verticalAlign=top;spacingLeft=4;spacingRight=4;overflow=hidden;rotatable=0;points=[[0,0.5],[1,0.5]];portConstraint=eastwest;whiteSpace=wrap;html=1;" vertex="1" parent="PftI_As0DloSIWzg-in4-120">
          <mxGeometry y="114" width="120" height="20" as="geometry" />
        </mxCell>
        <mxCell id="PftI_As0DloSIWzg-in4-123" value="+ alterar(): void" style="text;strokeColor=none;fillColor=none;align=left;verticalAlign=top;spacingLeft=4;spacingRight=4;overflow=hidden;rotatable=0;points=[[0,0.5],[1,0.5]];portConstraint=eastwest;whiteSpace=wrap;html=1;" vertex="1" parent="PftI_As0DloSIWzg-in4-120">
          <mxGeometry y="134" width="120" height="22" as="geometry" />
        </mxCell>
        <mxCell id="PftI_As0DloSIWzg-in4-128" value="+ excluir(): void" style="text;strokeColor=none;fillColor=none;align=left;verticalAlign=top;spacingLeft=4;spacingRight=4;overflow=hidden;rotatable=0;points=[[0,0.5],[1,0.5]];portConstraint=eastwest;whiteSpace=wrap;html=1;" vertex="1" parent="PftI_As0DloSIWzg-in4-120">
          <mxGeometry y="156" width="120" height="22" as="geometry" />
        </mxCell>
        <mxCell id="PftI_As0DloSIWzg-in4-127" value="+ visualizar(): void" style="text;strokeColor=none;fillColor=none;align=left;verticalAlign=top;spacingLeft=4;spacingRight=4;overflow=hidden;rotatable=0;points=[[0,0.5],[1,0.5]];portConstraint=eastwest;whiteSpace=wrap;html=1;" vertex="1" parent="PftI_As0DloSIWzg-in4-120">
          <mxGeometry y="178" width="120" height="24" as="geometry" />
        </mxCell>
        <mxCell id="PftI_As0DloSIWzg-in4-132" style="edgeStyle=orthogonalEdgeStyle;rounded=0;orthogonalLoop=1;jettySize=auto;html=1;exitX=0;exitY=0.5;exitDx=0;exitDy=0;entryX=0.497;entryY=1.228;entryDx=0;entryDy=0;entryPerimeter=0;" edge="1" parent="WIyWlLk6GJQsqaUBKTNV-1" source="PftI_As0DloSIWzg-in4-76" target="PftI_As0DloSIWzg-in4-127">
          <mxGeometry relative="1" as="geometry">
            <Array as="points">
              <mxPoint x="-10" y="335" />
              <mxPoint x="-10" y="500" />
              <mxPoint x="410" y="500" />
            </Array>
          </mxGeometry>
        </mxCell>
        <mxCell id="PftI_As0DloSIWzg-in4-133" style="edgeStyle=orthogonalEdgeStyle;rounded=0;orthogonalLoop=1;jettySize=auto;html=1;exitX=0;exitY=0.5;exitDx=0;exitDy=0;entryX=0.988;entryY=0.82;entryDx=0;entryDy=0;entryPerimeter=0;" edge="1" parent="WIyWlLk6GJQsqaUBKTNV-1" source="PftI_As0DloSIWzg-in4-111" target="PftI_As0DloSIWzg-in4-96">
          <mxGeometry relative="1" as="geometry" />
        </mxCell>
        <mxCell id="PftI_As0DloSIWzg-in4-140" value="Tipo_pgto" style="swimlane;fontStyle=1;align=center;verticalAlign=top;childLayout=stackLayout;horizontal=1;startSize=26;horizontalStack=0;resizeParent=1;resizeParentMax=0;resizeLast=0;collapsible=1;marginBottom=0;whiteSpace=wrap;html=1;" vertex="1" parent="WIyWlLk6GJQsqaUBKTNV-1">
          <mxGeometry x="670" y="321" width="119" height="155" as="geometry" />
        </mxCell>
        <mxCell id="PftI_As0DloSIWzg-in4-144" value="+ id_tipo_pgto: int" style="text;strokeColor=none;fillColor=none;align=left;verticalAlign=top;spacingLeft=4;spacingRight=4;overflow=hidden;rotatable=0;points=[[0,0.5],[1,0.5]];portConstraint=eastwest;whiteSpace=wrap;html=1;" vertex="1" parent="PftI_As0DloSIWzg-in4-140">
          <mxGeometry y="26" width="119" height="19" as="geometry" />
        </mxCell>
        <mxCell id="PftI_As0DloSIWzg-in4-146" value="+ descricao: string" style="text;strokeColor=none;fillColor=none;align=left;verticalAlign=top;spacingLeft=4;spacingRight=4;overflow=hidden;rotatable=0;points=[[0,0.5],[1,0.5]];portConstraint=eastwest;whiteSpace=wrap;html=1;" vertex="1" parent="PftI_As0DloSIWzg-in4-140">
          <mxGeometry y="45" width="119" height="21" as="geometry" />
        </mxCell>
        <mxCell id="PftI_As0DloSIWzg-in4-142" value="" style="line;strokeWidth=1;fillColor=none;align=left;verticalAlign=middle;spacingTop=-1;spacingLeft=3;spacingRight=3;rotatable=0;labelPosition=right;points=[];portConstraint=eastwest;strokeColor=inherit;" vertex="1" parent="PftI_As0DloSIWzg-in4-140">
          <mxGeometry y="66" width="119" height="8" as="geometry" />
        </mxCell>
        <mxCell id="PftI_As0DloSIWzg-in4-148" value="+ inserir(): void" style="text;strokeColor=none;fillColor=none;align=left;verticalAlign=top;spacingLeft=4;spacingRight=4;overflow=hidden;rotatable=0;points=[[0,0.5],[1,0.5]];portConstraint=eastwest;whiteSpace=wrap;html=1;" vertex="1" parent="PftI_As0DloSIWzg-in4-140">
          <mxGeometry y="74" width="119" height="20" as="geometry" />
        </mxCell>
        <mxCell id="PftI_As0DloSIWzg-in4-149" value="+ alterar() void" style="text;strokeColor=none;fillColor=none;align=left;verticalAlign=top;spacingLeft=4;spacingRight=4;overflow=hidden;rotatable=0;points=[[0,0.5],[1,0.5]];portConstraint=eastwest;whiteSpace=wrap;html=1;" vertex="1" parent="PftI_As0DloSIWzg-in4-140">
          <mxGeometry y="94" width="119" height="19" as="geometry" />
        </mxCell>
        <mxCell id="PftI_As0DloSIWzg-in4-147" value="+ excluir(): void" style="text;strokeColor=none;fillColor=none;align=left;verticalAlign=top;spacingLeft=4;spacingRight=4;overflow=hidden;rotatable=0;points=[[0,0.5],[1,0.5]];portConstraint=eastwest;whiteSpace=wrap;html=1;" vertex="1" parent="PftI_As0DloSIWzg-in4-140">
          <mxGeometry y="113" width="119" height="20" as="geometry" />
        </mxCell>
        <mxCell id="PftI_As0DloSIWzg-in4-143" value="+ visualizar(): void" style="text;strokeColor=none;fillColor=none;align=left;verticalAlign=top;spacingLeft=4;spacingRight=4;overflow=hidden;rotatable=0;points=[[0,0.5],[1,0.5]];portConstraint=eastwest;whiteSpace=wrap;html=1;" vertex="1" parent="PftI_As0DloSIWzg-in4-140">
          <mxGeometry y="133" width="119" height="22" as="geometry" />
        </mxCell>
        <mxCell id="PftI_As0DloSIWzg-in4-152" style="edgeStyle=orthogonalEdgeStyle;rounded=0;orthogonalLoop=1;jettySize=auto;html=1;exitX=0;exitY=0.5;exitDx=0;exitDy=0;entryX=0;entryY=0.5;entryDx=0;entryDy=0;" edge="1" parent="WIyWlLk6GJQsqaUBKTNV-1" source="PftI_As0DloSIWzg-in4-143" target="PftI_As0DloSIWzg-in4-91">
          <mxGeometry relative="1" as="geometry">
            <Array as="points">
              <mxPoint x="670" y="476" />
              <mxPoint x="726" y="476" />
              <mxPoint x="726" y="505" />
              <mxPoint x="-44" y="505" />
              <mxPoint x="-44" y="182" />
            </Array>
          </mxGeometry>
        </mxCell>
        <mxCell id="PftI_As0DloSIWzg-in4-153" style="edgeStyle=orthogonalEdgeStyle;rounded=0;orthogonalLoop=1;jettySize=auto;html=1;exitX=1;exitY=0.5;exitDx=0;exitDy=0;entryX=1;entryY=0.5;entryDx=0;entryDy=0;" edge="1" parent="WIyWlLk6GJQsqaUBKTNV-1" source="PftI_As0DloSIWzg-in4-58" target="PftI_As0DloSIWzg-in4-149">
          <mxGeometry relative="1" as="geometry" />
        </mxCell>
      </root>
    </mxGraphModel>
  </diagram>
</mxfile>
